<?xml version="1.0" encoding="UTF-8"?>
<svg width="18px" height="18px" viewBox="0 0 18 18" version="1.1" xmlns="http://www.w3.org/2000/svg" xmlns:xlink="http://www.w3.org/1999/xlink">
    <!-- Generator: Sketch 57.1 (83088) - https://sketch.com -->
    <title>inst</title>
    <desc>Created with Sketch.</desc>
    <g id="Page-1" stroke="none" stroke-width="1" fill="none" fill-rule="evenodd">
        <g id="inst" fill="#000000" fill-rule="nonzero">
            <path d="M5,0 C2.23857625,0 4.4408921e-16,2.23857625 4.4408921e-16,5 L4.4408921e-16,13 C4.4408921e-16,15.7614237 2.23857625,18 5,18 L13,18 C15.7614237,18 18,15.7614237 18,13 L18,5 C18,2.23857625 15.7614237,0 13,0 L5,0 Z M15,2 C15.55,2 16,2.45 16,3 C16,3.55 15.55,4 15,4 C14.45,4 14,3.55 14,3 C14,2.45 14.45,2 15,2 Z M9,4 C11.7614237,4 14,6.23857625 14,9 C14,11.7614237 11.7614237,14 9,14 C6.23857625,14 4,11.7614237 4,9 C4,6.23857625 6.23857625,4 9,4 L9,4 Z M8.99999977,5.99999983 C7.92784595,6.00035724 6.93732534,6.57267473 6.40155771,7.50136601 C5.86579008,8.43005728 5.86617128,9.57403204 6.40255771,10.502366 C6.93894414,11.4307001 7.92984595,12.0023573 9.002,12.0020002 C10.6594065,12.0014477 12.0025522,10.6574065 12.0020001,8.99999983 C12.0014477,7.34259349 10.6574065,5.99944775 8.99999977,5.99999983 Z" id="surface1"></path>
        </g>
    </g>
</svg>