<svg width="31" height="31" viewBox="0 0 31 31" fill="none" xmlns="http://www.w3.org/2000/svg">
<g clip-path="url(#clip0)">
<path d="M29.1836 12.4727H28.5781V9.74805C28.5781 8.41247 27.4914 7.32617 26.1562 7.32617C25.6894 7.32617 25.2528 7.45885 24.8829 7.68874C24.6352 6.61475 23.6708 5.8125 22.5234 5.8125H22.5227C21.1879 5.8125 20.1009 6.8988 20.1009 8.23438V12.4727H10.8991V8.23438C10.8991 6.8988 9.81214 5.8125 8.47656 5.8125C7.32925 5.8125 6.36475 6.61475 6.11713 7.68874C5.74722 7.45885 5.31062 7.32617 4.84375 7.32617C3.50864 7.32617 2.42188 8.41247 2.42188 9.74805V12.4727H1.81641C0.815018 12.4727 0 13.2877 0 14.2891V16.7109C0 17.7123 0.815018 18.5273 1.81641 18.5273H2.42188V21.252C2.42188 22.5875 3.50864 23.6738 4.84375 23.6738C5.31062 23.6738 5.74722 23.5411 6.11713 23.3113C6.36475 24.3853 7.32925 25.1875 8.47656 25.1875H8.47727C9.81214 25.1875 10.8991 24.1012 10.8991 22.7656V18.5273H20.1009V22.7656C20.1009 24.1012 21.1879 25.1875 22.5234 25.1875C23.6708 25.1875 24.6352 24.3853 24.8829 23.3113C25.2528 23.5411 25.6894 23.6738 26.1562 23.6738C27.4914 23.6738 28.5781 22.5875 28.5781 21.252V18.5273H29.1836C30.185 18.5273 31 17.7123 31 16.7109V14.2891C31 13.2877 30.185 12.4727 29.1836 12.4727ZM2.42188 17.3164H1.81641C1.48269 17.3164 1.21094 17.0447 1.21094 16.7109V14.2891C1.21094 13.9553 1.48269 13.6836 1.81641 13.6836H2.42188V17.3164ZM6.05469 21.252C6.05469 21.5861 5.91917 21.8889 5.69992 22.1081C5.48067 22.3274 5.17794 22.4629 4.84375 22.4629C4.17584 22.4629 3.63281 21.9199 3.63281 21.252V9.74805C3.63281 9.08014 4.17584 8.53711 4.84375 8.53711C5.51166 8.53711 6.05469 9.08014 6.05469 9.74805V21.252ZM9.68821 22.7656C9.68821 23.4335 9.14447 23.9766 8.47727 23.9766H8.47656C7.80936 23.9766 7.26562 23.4335 7.26562 22.7656V8.23438C7.26562 7.56647 7.80936 7.02344 8.47727 7.02344C9.14447 7.02344 9.68821 7.56647 9.68821 8.23438V22.7656ZM20.0973 14.8945H15.8633C15.5291 14.8945 15.2578 15.1658 15.2578 15.5C15.2578 15.8342 15.5291 16.1055 15.8633 16.1055H20.0973V17.3164H10.8961V13.6836H20.0973V14.8945ZM23.7344 22.7656C23.7344 23.4335 23.1906 23.9766 22.5227 23.9766C21.8555 23.9766 21.3118 23.4335 21.3118 22.7656V15.531C21.3113 15.5442 21.3101 15.5575 21.3082 15.5702V15.4298C21.3101 15.4425 21.3113 15.4558 21.3118 15.469V8.23438C21.3118 7.56647 21.8555 7.02344 22.5227 7.02344H22.5234C23.1906 7.02344 23.7344 7.56647 23.7344 8.23438V22.7656ZM27.3672 21.252C27.3672 21.9199 26.8242 22.4629 26.1562 22.4629C25.4883 22.4629 24.9453 21.9199 24.9453 21.252V9.74805C24.9453 9.08014 25.4883 8.53711 26.1562 8.53711C26.8242 8.53711 27.3672 9.08014 27.3672 9.74805V21.252ZM29.7891 16.7109C29.7891 17.0447 29.5173 17.3164 29.1836 17.3164H28.5781V13.6836H29.1836C29.5173 13.6836 29.7891 13.9553 29.7891 14.2891V16.7109Z" fill="white"/>
<path d="M13.4426 16.1055C13.1082 16.1055 12.8369 15.8344 12.8369 15.5C12.8369 15.1656 13.1077 14.8945 13.4421 14.8945H13.4426C13.777 14.8945 14.0481 15.1656 14.0481 15.5C14.0481 15.8344 13.777 16.1055 13.4426 16.1055Z" fill="white"/>
</g>
<defs>
<clipPath id="clip0">
<rect width="31" height="31" fill="white"/>
</clipPath>
</defs>
</svg>
