<svg width="23" height="22" viewBox="0 0 23 22" fill="none" xmlns="http://www.w3.org/2000/svg">
<path d="M21.8558 5.84484C21.6137 4.96125 20.9039 4.26473 20.0039 4.02681C18.3595 3.58521 11.7821 3.58521 11.7821 3.58521C11.7821 3.58521 5.2049 3.58521 3.56057 4.01007C2.67781 4.24774 1.95074 4.96138 1.7086 5.84484C1.27588 7.45869 1.27588 10.8056 1.27588 10.8056C1.27588 10.8056 1.27588 14.1694 1.7086 15.7663C1.951 16.6498 2.6605 17.3463 3.5607 17.5842C5.22222 18.026 11.7823 18.026 11.7823 18.026C11.7823 18.026 18.3595 18.026 20.0039 17.6011C20.9041 17.3633 21.6137 16.6668 21.8561 15.7833C22.2887 14.1694 22.2887 10.8226 22.2887 10.8226C22.2887 10.8226 22.306 7.45869 21.8558 5.84484ZM9.68798 13.8976V7.7136L15.1574 10.8056L9.68798 13.8976Z" fill="white"/>
</svg>
