<svg width="23" height="23" viewBox="0 0 23 23" fill="none" xmlns="http://www.w3.org/2000/svg">
<g clip-path="url(#clip0)">
<path d="M20.3645 23H2.63548C1.18166 23 0 21.8184 0 20.3646V4.55205C0 3.09823 1.18166 1.91675 2.63548 1.91675H20.3645C21.8183 1.91675 23 3.09823 23 4.55205V20.3646C23 21.8184 21.8183 23 20.3645 23ZM2.63548 3.35425C1.97516 3.35425 1.4375 3.89173 1.4375 4.55205V20.3646C1.4375 21.0249 1.97516 21.5625 2.63548 21.5625H20.3645C21.0248 21.5625 21.5625 21.0249 21.5625 20.3646V4.55205C21.5625 3.89173 21.0248 3.35425 20.3645 3.35425H2.63548Z" fill="white"/>
<path d="M22.2812 9.10425H0.71875C0.321999 9.10425 0 8.78225 0 8.3855C0 7.98875 0.321999 7.66675 0.71875 7.66675H22.2812C22.678 7.66675 23 7.98875 23 8.3855C23 8.78225 22.678 9.10425 22.2812 9.10425Z" fill="white"/>
<path d="M5.51025 5.75C5.1135 5.75 4.7915 5.428 4.7915 5.03125V0.71875C4.7915 0.321999 5.1135 0 5.51025 0C5.90701 0 6.229 0.321999 6.229 0.71875V5.03125C6.229 5.428 5.90701 5.75 5.51025 5.75Z" fill="white"/>
<path d="M17.4897 5.75C17.093 5.75 16.771 5.428 16.771 5.03125V0.71875C16.771 0.321999 17.093 0 17.4897 0C17.8865 0 18.2085 0.321999 18.2085 0.71875V5.03125C18.2085 5.428 17.8865 5.75 17.4897 5.75Z" fill="white"/>
</g>
<defs>
<clipPath id="clip0">
<rect width="23" height="23" fill="white"/>
</clipPath>
</defs>
</svg>
