<svg width="67" height="60" viewBox="0 0 67 60" fill="none" xmlns="http://www.w3.org/2000/svg">
<path d="M54.3954 3.26078C54.2367 3.10216 54.024 3.00926 53.7998 3.00066C53.5756 2.99205 53.3564 3.06837 53.186 3.21436L47.1207 8.41318L40.4062 9.9053V6.83209C40.4062 6.29967 40.2617 5.77725 39.9881 5.32051C39.7145 4.86378 39.3221 4.48986 38.8527 4.23864C38.3833 3.98742 37.8545 3.86831 37.3227 3.89402C36.7909 3.91973 36.276 4.08928 35.833 4.38461L33.6778 5.82144C33.5558 5.90276 33.4558 6.01295 33.3866 6.14222C33.3174 6.27149 33.2812 6.41584 33.2812 6.56247V10.3946C33.2809 10.8088 33.3531 11.2198 33.4947 11.6091L28.4784 13.7589L21.5188 16.6588C20.4549 17.0999 19.3125 17.3205 18.1608 17.307C17.0091 17.2935 15.8722 17.0462 14.8189 16.5803C13.3476 15.9295 11.7442 15.6327 10.1374 15.7139C8.53057 15.795 6.96519 16.2518 5.5669 17.0475L3.44873 18.2579C3.32983 18.3259 3.2282 18.4203 3.15174 18.5339C3.07528 18.6476 3.02605 18.7773 3.00788 18.913C2.9897 19.0488 3.00307 19.1869 3.04695 19.3166C3.09083 19.4463 3.16403 19.5642 3.26086 19.661L7.9641 24.3642C8.34634 24.744 8.63611 25.2067 8.81099 25.7164C8.98587 26.2261 9.04117 26.7692 8.97263 27.3037C8.87912 28.052 8.9458 28.8115 9.16824 29.532C9.39068 30.2525 9.76379 30.9174 10.2628 31.4827C10.7618 32.048 11.3754 32.5007 12.0627 32.8108C12.7501 33.1208 13.4955 33.2812 14.2495 33.2812C16.1444 33.2854 17.9796 33.9438 19.445 35.1451C20.9103 36.3464 21.9159 38.0169 22.2916 39.8741L22.611 41.4716C22.6427 41.6296 22.7166 41.7761 22.8249 41.8955C22.9333 42.0148 23.072 42.1025 23.2263 42.1493C23.3806 42.196 23.5446 42.1999 23.701 42.1607C23.8573 42.1215 24.0001 42.0406 24.1141 41.9267L29.7187 36.322V36.7391L25.2898 55.3406C25.2587 55.4714 25.2576 55.6076 25.2866 55.739C25.3156 55.8703 25.374 55.9934 25.4573 56.0989C25.5407 56.2045 25.6469 56.2897 25.7679 56.3484C25.889 56.407 26.0217 56.4375 26.1562 56.4375H28.8281C29.0073 56.4375 29.1822 56.3835 29.3302 56.2825C29.4782 56.1815 29.5922 56.0382 29.6575 55.8714L36.7385 37.7755L42.2261 55.8061C42.2817 55.9888 42.3945 56.1488 42.5479 56.2624C42.7013 56.3761 42.8872 56.4375 43.0781 56.4375H45.75C45.8786 56.4375 46.0056 56.4096 46.1224 56.3558C46.2393 56.3021 46.343 56.2236 46.4266 56.1259C46.5103 56.0283 46.5717 55.9136 46.6068 55.7899C46.6419 55.6662 46.6498 55.5364 46.63 55.4093L42.2102 27.1231L45.5876 16.991L50.6014 14.484C50.74 14.4148 50.8582 14.3105 50.9441 14.1815L56.2879 6.16586C56.4021 5.99454 56.4534 5.78895 56.4331 5.58405C56.4129 5.37916 56.3222 5.18762 56.1766 5.04203L54.3954 3.26078ZM34.0252 15.8823L33.4571 16.1663L31.635 14.3441L33.4466 13.5678L34.0252 15.8823ZM35.0625 10.3946V8.61334H38.625V10.3946C38.625 10.867 38.4373 11.3201 38.1033 11.6541C37.7692 11.9882 37.3162 12.1758 36.8437 12.1758C36.3713 12.1758 35.9183 11.9882 35.5842 11.6541C35.2502 11.3201 35.0625 10.867 35.0625 10.3946ZM43.0781 11.1363V13.137L42.454 13.449L41.0564 11.5855L43.0781 11.1363ZM36.8211 5.86666C36.9958 5.75019 37.1989 5.68332 37.4087 5.67319C37.6184 5.66306 37.827 5.71005 38.0122 5.80914C38.1973 5.90823 38.3521 6.05572 38.46 6.23587C38.568 6.41602 38.625 6.62208 38.625 6.83209H35.373L36.8211 5.86666ZM24.0313 39.4904C23.5673 37.2373 22.3414 35.2127 20.5599 33.7575C18.7783 32.3022 16.5499 31.505 14.2495 31.5C13.748 31.5 13.2523 31.3933 12.7952 31.1871C12.3381 30.9809 11.93 30.6798 11.5982 30.3039C11.2663 29.9279 11.0181 29.4857 10.8702 29.0066C10.7223 28.5274 10.6779 28.0223 10.7401 27.5247C10.8432 26.721 10.76 25.9044 10.497 25.1379C10.2341 24.3715 9.7984 23.6758 9.22366 23.1047L5.3449 19.2259L6.45068 18.5942C7.60606 17.9367 8.89951 17.5592 10.2272 17.4922C11.5549 17.4251 12.8798 17.6703 14.0955 18.208C15.3702 18.7719 16.7462 19.071 18.14 19.0874C19.5338 19.1037 20.9163 18.8369 22.2039 18.303L26.4554 16.5316L22.7433 22.0997C22.6458 22.246 22.5937 22.4179 22.5937 22.5937V27.0468C22.5937 27.2338 22.6526 27.416 22.7619 27.5676C22.8712 27.7193 23.0254 27.8327 23.2027 27.8918L30.3734 30.282L29.7645 32.1089C29.7342 32.1997 29.7188 32.2949 29.7187 32.3906V33.8029L24.0313 39.4904ZM29.2425 24.1194L30.2458 22.7817L30.9145 25.1225L29.2425 24.1194ZM31.3197 27.443L30.9367 28.5921L29.3206 28.0534L30.0167 26.6612L31.3197 27.443ZM43.738 54.6562L37.6958 34.8032C37.6419 34.6262 37.5342 34.4703 37.3877 34.3573C37.2412 34.2443 37.0632 34.1797 36.8783 34.1725C36.6934 34.1653 36.5108 34.2159 36.356 34.3173C36.2012 34.4186 36.0818 34.5656 36.0144 34.7379L28.2202 54.6562H27.2838L31.4758 37.05C31.4919 36.9824 31.5 36.9132 31.5 36.8437V32.5351L33.0325 27.9375H40.5346L44.7094 54.6562H43.738ZM49.5933 12.9967L44.4611 15.5628C44.3565 15.615 44.2632 15.6874 44.1865 15.7758C44.1099 15.8641 44.0514 15.9667 44.0145 16.0777L40.6549 26.1562H33.0624L31.4657 20.5679C31.4202 20.4084 31.3311 20.2648 31.2083 20.1533C31.0856 20.0418 30.9342 19.9668 30.7711 19.9366C30.6081 19.9065 30.4398 19.9225 30.2854 19.9829C30.1309 20.0432 29.9964 20.1454 29.8969 20.2781L27.225 23.8406C27.1502 23.9404 27.0972 24.0547 27.0693 24.1763C27.0415 24.2978 27.0395 24.4238 27.0635 24.5462C27.0875 24.6686 27.1369 24.7845 27.2085 24.8866C27.2801 24.9887 27.3724 25.0746 27.4793 25.1387L28.4848 25.742L27.6136 27.4844L24.375 26.405V22.8633L29.4223 15.2924L29.8716 15.0998L32.6515 17.8798C32.7837 18.0119 32.9541 18.0992 33.1386 18.1291C33.3231 18.159 33.5123 18.1301 33.6795 18.0465L35.4608 17.1559C35.642 17.0653 35.787 16.9156 35.8716 16.7315C35.9563 16.5474 35.9757 16.3399 35.9265 16.1433L35.2908 13.6002C36.0147 13.9515 36.8364 14.047 37.6217 13.8709C38.4069 13.6949 39.1092 13.2578 39.614 12.6311L41.475 15.1124C41.6001 15.2794 41.7798 15.3971 41.9828 15.445C42.1858 15.4929 42.3992 15.468 42.5858 15.3747L44.367 14.484C44.515 14.4101 44.6394 14.2964 44.7263 14.1557C44.8133 14.015 44.8594 13.8529 44.8594 13.6875V10.7404L47.7244 10.1038C47.8671 10.072 47.9999 10.0057 48.1109 9.91057L50.3621 7.98098L51.907 9.52598L49.5933 12.9967ZM52.9147 8.01449L51.7185 6.81831L53.719 5.10357L54.4008 5.78534L52.9147 8.01449Z" fill="white"/>
<path d="M6.45753 12.5944L4.33936 13.8047L5.22313 15.3514L7.3413 14.141L6.45753 12.5944Z" fill="white"/>
<path d="M14.9861 13.7548C16.2609 14.3187 17.6368 14.6179 19.0306 14.6342C20.4244 14.6505 21.807 14.3837 23.0946 13.8498L23.8269 13.5447L23.1418 11.9004L22.4094 12.2056C21.3455 12.6468 20.2031 12.8673 19.0514 12.8538C17.8998 12.8403 16.7628 12.5931 15.7096 12.1271C13.604 11.195 11.2469 10.9955 9.01465 11.5603L9.45409 13.2866C11.2986 12.8198 13.2463 12.9847 14.9861 13.7548Z" fill="white"/>
</svg>
