<svg width="94" height="60" viewBox="0 0 94 60" fill="none" xmlns="http://www.w3.org/2000/svg">
<path d="M56.4844 24.0625H55.3125V18.7188C55.3125 16.0993 53.2091 13.9688 50.625 13.9688C49.7214 13.9688 48.8763 14.229 48.1604 14.6799C47.6811 12.5734 45.8144 11 43.5938 11H43.5924C41.0088 11 38.9049 13.1305 38.9049 15.75V24.0625H21.0951V15.75C21.0951 13.1305 18.9912 11 16.4062 11C14.1856 11 12.3189 12.5734 11.8396 14.6799C11.1237 14.229 10.2786 13.9688 9.375 13.9688C6.79092 13.9688 4.6875 16.0993 4.6875 18.7188V24.0625H3.51562C1.57745 24.0625 0 25.661 0 27.625V32.375C0 34.339 1.57745 35.9375 3.51562 35.9375H4.6875V41.2812C4.6875 43.9007 6.79092 46.0312 9.375 46.0312C10.2786 46.0312 11.1237 45.771 11.8396 45.3201C12.3189 47.4266 14.1856 49 16.4062 49H16.4076C18.9912 49 21.0951 46.8695 21.0951 44.25V35.9375H38.9049V44.25C38.9049 46.8695 41.0088 49 43.5938 49C45.8144 49 47.6811 47.4266 48.1604 45.3201C48.8763 45.771 49.7214 46.0312 50.625 46.0312C53.2091 46.0312 55.3125 43.9007 55.3125 41.2812V35.9375H56.4844C58.4225 35.9375 60 34.339 60 32.375V27.625C60 25.661 58.4225 24.0625 56.4844 24.0625ZM4.6875 33.5625H3.51562C2.86972 33.5625 2.34375 33.0295 2.34375 32.375V27.625C2.34375 26.9705 2.86972 26.4375 3.51562 26.4375H4.6875V33.5625ZM11.7188 41.2812C11.7188 41.9367 11.4565 42.5304 11.0321 42.9604C10.6078 43.3905 10.0218 43.6562 9.375 43.6562C8.08228 43.6562 7.03125 42.5912 7.03125 41.2812V18.7188C7.03125 17.4088 8.08228 16.3438 9.375 16.3438C10.6677 16.3438 11.7188 17.4088 11.7188 18.7188V41.2812ZM18.7514 44.25C18.7514 45.56 17.699 46.625 16.4076 46.625H16.4062C15.1149 46.625 14.0625 45.56 14.0625 44.25V15.75C14.0625 14.44 15.1149 13.375 16.4076 13.375C17.699 13.375 18.7514 14.44 18.7514 15.75V44.25ZM38.898 28.8125H30.7031C30.0563 28.8125 29.5312 29.3446 29.5312 30C29.5312 30.6554 30.0563 31.1875 30.7031 31.1875H38.898V33.5625H21.0892V26.4375H38.898V28.8125ZM45.9375 44.25C45.9375 45.56 44.8851 46.625 43.5924 46.625C42.301 46.625 41.2486 45.56 41.2486 44.25V30.0608C41.2477 30.0867 41.2454 30.1127 41.2418 30.1378V29.8622C41.2454 29.8873 41.2477 29.9133 41.2486 29.9392V15.75C41.2486 14.44 42.301 13.375 43.5924 13.375H43.5938C44.8851 13.375 45.9375 14.44 45.9375 15.75V44.25ZM52.9688 41.2812C52.9688 42.5912 51.9177 43.6562 50.625 43.6562C49.3323 43.6562 48.2812 42.5912 48.2812 41.2812V18.7188C48.2812 17.4088 49.3323 16.3438 50.625 16.3438C51.9177 16.3438 52.9688 17.4088 52.9688 18.7188V41.2812ZM57.6562 32.375C57.6562 33.0295 57.1303 33.5625 56.4844 33.5625H55.3125V26.4375H56.4844C57.1303 26.4375 57.6562 26.9705 57.6562 27.625V32.375Z" fill="white"/>
<path d="M24.2834 29.6133C23.6793 29.6133 23.1892 29.1149 23.1892 28.5C23.1892 27.8851 23.6784 27.3867 24.2825 27.3867H24.2834C24.8875 27.3867 25.3771 27.8851 25.3771 28.5C25.3771 29.1149 24.8875 29.6133 24.2834 29.6133Z" fill="white"/>
</svg>
