<svg width="100" height="60" viewBox="0 0 100 60" fill="none" xmlns="http://www.w3.org/2000/svg">
<path d="M51.0938 14.2344C50.525 14.2346 49.9646 14.3711 49.4594 14.6324C48.9542 14.8937 48.5191 15.2723 48.1903 15.7364C47.7733 15.2642 47.2607 14.8861 46.6864 14.6271C46.1121 14.3681 45.4893 14.2343 44.8594 14.2344H43.0781C41.4252 14.2362 39.8406 14.8937 38.6718 16.0624C37.5031 17.2312 36.8456 18.8159 36.8438 20.4688V23.6624L26.1115 12.9301C25.2354 12.0563 24.0484 11.566 22.8111 11.5668C21.5738 11.5676 20.3874 12.0595 19.5125 12.9344C18.6376 13.8093 18.1458 14.9957 18.1449 16.233C18.1441 17.4703 18.6345 18.6573 19.5082 19.5333L33.1964 33.2215L31.8818 39.1371L11.7635 18.1805L8.47889 10.9544C8.07737 10.0743 7.43152 9.32793 6.61813 8.80418C5.80475 8.28043 4.85805 8.00131 3.89062 8C3.77367 8 3.65785 8.02303 3.54979 8.06779C3.44174 8.11254 3.34355 8.17815 3.26085 8.26085C3.17815 8.34355 3.11254 8.44174 3.06779 8.54979C3.02303 8.65785 3 8.77367 3 8.89062V23.1406C3 23.2576 3.02303 23.3734 3.06779 23.4815C3.11254 23.5895 3.17815 23.6877 3.26085 23.7704C3.34355 23.8531 3.44174 23.9187 3.54979 23.9635C3.65785 24.0082 3.77367 24.0313 3.89062 24.0312H6.09401L21.3141 46.1695C22.6251 48.0764 24.3687 49.646 26.4025 50.75H15.4688V52.5312H50.2031V50.75H40.3961C43.1614 49.2532 45.3735 46.9088 46.7073 44.0613C48.4176 40.3824 49.3066 36.3754 49.3125 32.3183V30.8428C50.0625 31.7747 51.0119 32.5267 52.0908 33.0433C53.1697 33.5599 54.3507 33.8281 55.5469 33.8281C55.6638 33.8281 55.7796 33.8051 55.8877 33.7603C55.9958 33.7156 56.0939 33.65 56.1767 33.5673C56.2594 33.4846 56.325 33.3864 56.3697 33.2783C56.4145 33.1703 56.4375 33.0545 56.4375 32.9375V19.5781C56.4359 18.1614 55.8724 16.8031 54.8706 15.8013C53.8688 14.7995 52.5105 14.236 51.0938 14.2344ZM42.1875 26.7031H41.2969C40.5885 26.7023 39.9094 26.4206 39.4084 25.9197C38.9075 25.4188 38.6258 24.7396 38.625 24.0312V20.4688C38.6249 20.1696 38.6549 19.8712 38.7146 19.5781H41.2969V21.3594C41.2969 21.4763 41.3199 21.5921 41.3647 21.7002C41.4094 21.8083 41.475 21.9064 41.5577 21.9891L45.1202 25.5516C45.2029 25.6343 45.3011 25.6999 45.4092 25.7447C45.5172 25.7895 45.633 25.8125 45.75 25.8125H47.5312V28.4844H43.0781V27.5938C43.0781 27.4768 43.0551 27.361 43.0103 27.2529C42.9656 27.1449 42.9 27.0467 42.8173 26.964C42.7346 26.8813 42.6364 26.8157 42.5283 26.7709C42.4203 26.7262 42.3045 26.7031 42.1875 26.7031ZM43.0781 16.0156H44.8594C45.5678 16.0164 46.2469 16.2982 46.7478 16.7991C47.2487 17.3 47.5305 17.9791 47.5312 18.6875V24.0312H46.1189L43.0781 20.9905V18.6875C43.0781 18.5705 43.0551 18.4547 43.0103 18.3467C42.9656 18.2386 42.9 18.1404 42.8173 18.0577C42.7346 17.975 42.6364 17.9094 42.5283 17.8647C42.4203 17.8199 42.3045 17.7969 42.1875 17.7969H39.5181C39.9324 17.2439 40.4698 16.795 41.0877 16.4859C41.7057 16.1767 42.3872 16.0157 43.0781 16.0156ZM19.9219 16.2317C19.9219 15.6605 20.0913 15.1022 20.4086 14.6272C20.7259 14.1523 21.177 13.7822 21.7047 13.5636C22.2324 13.345 22.813 13.2878 23.3733 13.3992C23.9335 13.5107 24.4481 13.7857 24.8519 14.1896L39.5604 28.8981C40.1016 29.4397 40.4055 30.1742 40.4053 30.9399C40.4051 31.7056 40.1009 32.4399 39.5594 32.9813C39.018 33.5228 38.2837 33.827 37.518 33.8272C36.7523 33.8274 36.0179 33.5235 35.4762 32.9823L20.7677 18.2738C20.4987 18.0063 20.2854 17.688 20.1402 17.3375C19.9951 16.987 19.9208 16.6111 19.9219 16.2317ZM26.2889 35.8832L20.1533 41.337L7.7161 23.2465L11.0026 19.96L26.2889 35.8832ZM4.78125 9.9059C5.23591 10.0356 5.657 10.2624 6.01545 10.5707C6.37389 10.879 6.66113 11.2614 6.85735 11.6915L9.94942 18.4941L6.19362 22.25H4.78125V9.9059ZM33.4079 50.75C31.3161 50.7503 29.2557 50.2415 27.4045 49.2677C25.5532 48.2939 23.9667 46.8842 22.7819 45.1604L21.1703 42.8163L27.5234 37.1691L31.7481 41.5699C31.8253 41.6499 31.9168 41.7146 32.0178 41.7609L32.0174 41.7618L42.7636 46.7215C41.5577 47.9909 40.1068 49.0024 38.4987 49.6949C36.8906 50.3873 35.1587 50.7463 33.4079 50.75ZM47.5312 32.3183C47.5257 36.1151 46.6937 39.8652 45.0932 43.3081C44.7676 44.0056 44.3797 44.6723 43.9342 45.3L33.4158 40.4454L34.7007 34.6633C35.3935 35.1876 36.2189 35.5083 37.0839 35.5891C37.949 35.67 38.8195 35.5078 39.5975 35.121C40.3754 34.7341 41.03 34.1378 41.4876 33.3992C41.9451 32.6606 42.1875 31.809 42.1875 30.9402C42.1874 30.7145 42.1712 30.489 42.139 30.2656H47.5312V32.3183ZM54.6562 31.9834C53.1732 31.7673 51.8174 31.025 50.8363 29.8921C49.8553 28.7592 49.3144 27.3112 49.3125 25.8125V17.7969C49.313 17.3246 49.5009 16.8719 49.8348 16.5379C50.1687 16.204 50.6215 16.0162 51.0938 16.0156C52.0383 16.0167 52.9438 16.3924 53.6116 17.0602C54.2795 17.7281 54.6552 18.6336 54.6562 19.5781V31.9834Z" fill="white"/>
<path d="M13.6875 50.75H11.9062V52.5312H13.6875V50.75Z" fill="white"/>
<path d="M53.7656 50.75H51.9844V52.5312H53.7656V50.75Z" fill="white"/>
</svg>
