<svg width="60" height="60" viewBox="0 0 60 60" fill="none" xmlns="http://www.w3.org/2000/svg">
<path d="M30 5.85938C30.6471 5.85938 31.1719 5.33473 31.1719 4.6875V1.17188C31.1719 0.524648 30.6471 0 30 0C29.3529 0 28.8281 0.524648 28.8281 1.17188V4.6875C28.8281 5.33473 29.3529 5.85938 30 5.85938Z" fill="white"/>
<path d="M54.6094 31.1719H58.8281C59.4752 31.1719 60 30.6472 60 30C60 29.3528 59.4752 28.8281 58.8281 28.8281H54.6094C53.9623 28.8281 53.4375 29.3528 53.4375 30C53.4375 30.6472 53.9623 31.1719 54.6094 31.1719Z" fill="white"/>
<path d="M1.17188 31.1719H5.39062C6.03773 31.1719 6.5625 30.6472 6.5625 30C6.5625 29.3528 6.03773 28.8281 5.39062 28.8281H1.17188C0.524766 28.8281 0 29.3528 0 30C0 30.6472 0.524766 31.1719 1.17188 31.1719Z" fill="white"/>
<path d="M48.2301 12.7244L50.7168 10.2377C51.1744 9.78008 51.1744 9.03805 50.7168 8.58032C50.2591 8.1227 49.5173 8.1227 49.0594 8.58032L46.5727 11.067C46.1151 11.5247 46.1151 12.2667 46.5727 12.7244C47.0304 13.182 47.7722 13.182 48.2301 12.7244Z" fill="white"/>
<path d="M11.7699 12.7244C12.2276 13.182 12.9694 13.182 13.4273 12.7244C13.8849 12.2668 13.8849 11.5248 13.4273 11.067L10.9405 8.58032C10.4828 8.1227 9.74101 8.1227 9.28315 8.58032C8.82554 9.03794 8.82554 9.77997 9.28315 10.2377L11.7699 12.7244Z" fill="white"/>
<path d="M30 60C30.6472 60 31.1719 59.4753 31.1719 58.8281C31.1719 58.1809 30.6472 57.6562 30 57.6562C29.3528 57.6562 28.8281 58.1809 28.8281 58.8281C28.8281 59.4753 29.3528 60 30 60Z" fill="white"/>
<path d="M13.0078 28.2422V37.0312C13.0078 43.4546 18.1773 47.1435 20.0391 48.2634V58.8281C20.0391 59.4754 20.5638 60 21.2109 60H24.7266C25.3737 60 25.8984 59.4754 25.8984 58.8281C25.8984 58.1809 25.3737 57.6562 24.7266 57.6562H22.3828V47.5781C22.3828 47.136 22.1318 46.7304 21.7371 46.5311C21.6732 46.4988 15.3516 43.2336 15.3516 37.0312V28.2422C15.3516 26.9498 16.403 25.8984 17.6953 25.8973H30.4682C29.9238 28.5696 27.5562 30.5859 24.7266 30.5859H21.2109C20.5638 30.5859 20.0391 31.1106 20.0391 31.7578C20.0391 32.405 20.5638 32.9297 21.2109 32.9297C26.3803 32.9297 30.5859 37.1353 30.5859 42.3047C30.5859 42.9519 31.1107 43.4766 31.7578 43.4766C32.4049 43.4766 32.9297 42.9519 32.9297 42.3047C32.9297 39.0738 35.5582 36.4453 38.7891 36.4453C39.4362 36.4453 39.9609 35.9207 39.9609 35.2734C39.9609 34.6262 39.4362 34.1016 38.7891 34.1016C35.9643 34.1016 33.4685 35.5369 31.9924 37.7163C31.0635 35.5419 29.4966 33.7027 27.527 32.4374C29.5658 31.6945 31.2288 30.1641 32.1484 28.2165C32.9784 28.9605 34.0738 29.4094 35.2736 29.4094C35.5739 29.4094 35.8811 29.4141 36.1636 29.4141C36.7163 29.4141 37.2492 29.4009 37.7399 29.3031C38.2219 31.3782 40.0849 32.9297 42.3047 32.9297C43.1582 32.9297 43.9584 32.6993 44.6484 32.2991V37.0312C44.6484 43.2336 38.3268 46.4988 38.265 46.53C37.868 46.7285 37.6172 47.1342 37.6172 47.5781V57.6562H35.2734C34.6263 57.6562 34.1016 58.1809 34.1016 58.8281C34.1016 59.4754 34.6263 60 35.2734 60H38.7891C39.4362 60 39.9609 59.4754 39.9609 58.8281V48.2634C41.8227 47.1435 46.9922 43.4546 46.9922 37.0312C46.9922 34.6985 46.9922 25.9637 46.9922 22.2656C46.9922 19.6809 44.8894 17.5781 42.3047 17.5781C41.4389 17.5781 40.6276 17.815 39.9309 18.2261C39.6695 15.8871 37.6809 14.0625 35.2734 14.0625C34.4077 14.0625 33.5964 14.2993 32.8997 14.7104C32.6382 12.3715 30.6497 10.5469 28.2422 10.5469C25.8347 10.5469 23.8461 12.3715 23.5847 14.7104C22.888 14.2993 22.0767 14.0625 21.2109 14.0625C18.6263 14.0625 16.5234 16.1653 16.5234 18.75V23.703C14.5039 24.2248 13.0078 26.062 13.0078 28.2422ZM42.3047 19.9219C43.597 19.9219 44.6484 20.9733 44.6484 22.2656V28.2422C44.6484 29.5345 43.597 30.5859 42.3047 30.5859C41.0123 30.5859 39.9609 29.5345 39.9609 28.2422V22.2656C39.9609 20.9733 41.0123 19.9219 42.3047 19.9219ZM35.2734 16.4062C36.5658 16.4062 37.6172 17.4577 37.6172 18.75V26.4844C37.6172 26.8167 37.5503 26.91 37.5496 26.9107C37.3734 27.0854 36.3559 27.0773 35.7478 27.0728C35.5927 27.0715 35.4342 27.0703 35.2734 27.0703C33.9811 27.0703 32.9297 26.0189 32.9297 24.7266V18.75C32.9297 17.4577 33.9811 16.4062 35.2734 16.4062ZM25.8984 15.2344C25.8984 13.942 26.9498 12.8906 28.2422 12.8906C29.5345 12.8906 30.5859 13.942 30.5859 15.2344V23.5547H25.8984V15.2344ZM21.2109 16.4062C22.5033 16.4062 23.5547 17.4577 23.5547 18.75V23.5547H18.8672V18.75C18.8672 17.4577 19.9186 16.4062 21.2109 16.4062Z" fill="white"/>
</svg>
