<svg width="23" height="24" viewBox="0 0 23 24" fill="none" xmlns="http://www.w3.org/2000/svg">
<g clip-path="url(#clip0)">
<path d="M20.5798 6.31494C20.1035 6.55542 19.9041 7.15356 20.1346 7.65039C20.7642 9.00757 21.0833 10.4705 21.0833 12C21.0833 17.5139 16.7842 22 11.5 22C6.21583 22 1.91667 17.5139 1.91667 12C1.91667 6.48608 6.21583 2 11.5 2C13.6897 2 15.7468 2.74609 17.4493 4.15747C17.8623 4.50146 18.4662 4.42944 18.7958 3.99707C19.1255 3.56494 19.0565 2.93555 18.6419 2.59204C16.6262 0.92041 14.0898 0 11.5 0C5.15923 0 0 5.38354 0 12C0 18.6165 5.15923 24 11.5 24C17.8408 24 23 18.6165 23 12C23 10.1665 22.6163 8.40942 21.8596 6.77954C21.6296 6.28149 21.0546 6.07397 20.5798 6.31494Z" fill="white"/>
<path d="M11.4998 4C10.9708 4 10.5415 4.448 10.5415 5V12C10.5415 12.552 10.9708 13 11.4998 13H16.2915C16.8205 13 17.2498 12.552 17.2498 12C17.2498 11.448 16.8205 11 16.2915 11H12.4582V5C12.4582 4.448 12.0288 4 11.4998 4Z" fill="white"/>
</g>
<defs>
<clipPath id="clip0">
<rect width="23" height="24" fill="white"/>
</clipPath>
</defs>
</svg>
