<svg width="60" height="60" viewBox="0 0 60 60" fill="none" xmlns="http://www.w3.org/2000/svg">
    <path d="M30 5.86c.647 0 1.172-.525 1.172-1.173V1.172a1.172 1.172 0 0 0-2.344 0v3.516c0 .647.525 1.171 1.172 1.171z" fill="#fff"/>
    <path d="M54.61 31.172h4.218a1.172 1.172 0 0 0 0-2.344H54.61a1.172 1.172 0 0 0 0 2.344z" fill="#fff"/>
    <path d="M1.172 31.172H5.39a1.172 1.172 0 0 0 0-2.344H1.17a1.172 1.172 0 0 0 0 2.344z" fill="#fff"/>
    <path d="M48.23 12.724l2.487-2.486a1.172 1.172 0 0 0-1.658-1.658l-2.486 2.487a1.172 1.172 0 0 0 1.657 1.657z" fill="#fff"/>
    <path d="M11.77 12.724a1.172 1.172 0 0 0 1.657-1.657L10.941 8.58a1.172 1.172 0 0 0-1.658 1.658l2.487 2.486z" fill="#fff"/>
    <path d="M30 60a1.172 1.172 0 1 0 0-2.344A1.172 1.172 0 0 0 30 60z" fill="#fff"/>
    <path d="M13.008 28.242v8.79c0 6.423 5.17 10.112 7.031 11.231v10.565c0 .647.525 1.172 1.172 1.172h3.516a1.172 1.172 0 0 0 0-2.344h-2.344V47.578c0-.442-.251-.848-.646-1.047-.064-.032-6.385-3.297-6.385-9.5v-8.789a2.348 2.348 0 0 1 2.343-2.345h12.773a5.87 5.87 0 0 1-5.741 4.689H21.21a1.172 1.172 0 0 0 0 2.344c5.17 0 9.375 4.205 9.375 9.375a1.172 1.172 0 0 0 2.344 0c0-3.231 2.628-5.86 5.86-5.86a1.172 1.172 0 0 0 0-2.343 8.202 8.202 0 0 0-6.798 3.614 11.792 11.792 0 0 0-4.465-5.279 8.25 8.25 0 0 0 4.621-4.22 4.664 4.664 0 0 0 3.126 1.192c.3 0 .607.005.89.005.552 0 1.085-.013 1.576-.11a4.694 4.694 0 0 0 4.565 3.626c.853 0 1.653-.23 2.343-.63v4.731c0 6.203-6.321 9.468-6.383 9.499a1.172 1.172 0 0 0-.648 1.048v10.078h-2.344a1.172 1.172 0 0 0 0 2.344h3.516c.647 0 1.172-.525 1.172-1.172V48.263c1.862-1.12 7.031-4.808 7.031-11.232V22.266a4.693 4.693 0 0 0-4.687-4.688c-.866 0-1.677.237-2.374.648a4.694 4.694 0 0 0-4.658-4.163c-.865 0-1.677.236-2.373.647a4.694 4.694 0 0 0-4.658-4.163 4.694 4.694 0 0 0-4.657 4.163 4.657 4.657 0 0 0-2.374-.648 4.693 4.693 0 0 0-4.688 4.688v4.953a4.696 4.696 0 0 0-3.515 4.54zm29.297-8.32a2.346 2.346 0 0 1 2.343 2.344v5.976a2.346 2.346 0 0 1-2.343 2.344 2.346 2.346 0 0 1-2.344-2.344v-5.976a2.346 2.346 0 0 1 2.344-2.344zm-7.032-3.516a2.346 2.346 0 0 1 2.344 2.344v7.734c0 .333-.067.426-.067.427-.177.174-1.194.166-1.802.162a56.401 56.401 0 0 0-.475-.003 2.346 2.346 0 0 1-2.343-2.343V18.75a2.346 2.346 0 0 1 2.343-2.344zm-9.375-1.172a2.346 2.346 0 0 1 2.344-2.343 2.346 2.346 0 0 1 2.344 2.343v8.32h-4.688v-8.32zm-4.687 1.172a2.346 2.346 0 0 1 2.344 2.344v4.805h-4.688V18.75a2.346 2.346 0 0 1 2.344-2.344z" fill="#fff"/>
</svg>
