<svg width="100" height="60" viewBox="0 0 100 60" fill="none" xmlns="http://www.w3.org/2000/svg">
    <path d="M51.094 14.234a3.56 3.56 0 0 0-2.904 1.502 4.443 4.443 0 0 0-3.33-1.502h-1.782a6.241 6.241 0 0 0-6.234 6.235v3.193L26.11 12.93a4.67 4.67 0 0 0-6.603 6.603l13.688 13.688-1.314 5.916L11.763 18.18 8.48 10.954A5.051 5.051 0 0 0 3.89 8 .89.89 0 0 0 3 8.89v14.25a.891.891 0 0 0 .89.891h2.204l15.22 22.139a14.665 14.665 0 0 0 5.088 4.58H15.47v1.781h34.734V50.75h-9.807a14.692 14.692 0 0 0 6.311-6.689 27.952 27.952 0 0 0 2.605-11.743v-1.475a8.003 8.003 0 0 0 6.235 2.985.89.89 0 0 0 .89-.89v-13.36a5.35 5.35 0 0 0-5.343-5.344zm-8.907 12.47h-.89a2.675 2.675 0 0 1-2.672-2.673V20.47c0-.3.03-.598.09-.89h2.582v1.78a.89.89 0 0 0 .26.63l3.563 3.563a.891.891 0 0 0 .63.26h1.781v2.672h-4.453v-.89a.89.89 0 0 0-.89-.89zm.891-10.688h1.781a2.675 2.675 0 0 1 2.672 2.672v5.343H46.12l-3.04-3.04v-2.303a.89.89 0 0 0-.892-.891h-2.669a4.448 4.448 0 0 1 3.56-1.781zm-23.156.216a2.888 2.888 0 0 1 4.93-2.042L39.56 28.898a2.888 2.888 0 0 1-4.084 4.084L20.768 18.274a2.87 2.87 0 0 1-.846-2.042zm6.367 19.651l-6.136 5.454-12.437-18.09 3.287-3.287 15.286 15.923zM4.78 9.906a3.267 3.267 0 0 1 2.076 1.785l3.092 6.803-3.755 3.756H4.78V9.906zM33.408 50.75a12.891 12.891 0 0 1-10.626-5.59l-1.612-2.344 6.353-5.647 4.225 4.4a.89.89 0 0 0 .27.192l10.746 4.96a12.944 12.944 0 0 1-9.356 4.029zM47.53 32.318a26.16 26.16 0 0 1-2.438 10.99 12.786 12.786 0 0 1-1.159 1.992l-10.518-4.855 1.285-5.782a4.67 4.67 0 0 0 7.438-4.397h5.392v2.052zm7.125-.335a6.244 6.244 0 0 1-5.343-6.17v-8.016a1.783 1.783 0 0 1 1.78-1.781 3.567 3.567 0 0 1 3.563 3.562v12.405z" fill="#fff"/>
    <path d="M13.688 50.75h-1.782v1.781h1.781V50.75z" fill="#fff"/>
    <path d="M53.766 50.75h-1.782v1.781h1.782V50.75z" fill="#fff"/>
</svg>
