<svg width="23" height="24" viewBox="0 0 23 24" fill="none" xmlns="http://www.w3.org/2000/svg">
    <g clip-path="url(#a)" fill="#fff">
        <path d="M20.58 6.315c-.476.24-.676.839-.445 1.335.63 1.358.948 2.82.948 4.35 0 5.514-4.299 10-9.583 10s-9.583-4.486-9.583-10S6.216 2 11.5 2c2.19 0 4.247.746 5.95 2.157a.931.931 0 0 0 1.346-.16c.33-.432.26-1.061-.154-1.405A11.22 11.22 0 0 0 11.5 0C5.16 0 0 5.384 0 12s5.16 12 11.5 12S23 18.616 23 12c0-1.834-.384-3.59-1.14-5.22a.94.94 0 0 0-1.28-.465z"/>
        <path d="M11.5 4c-.53 0-.959.448-.959 1v7c0 .552.43 1 .959 1h4.791c.53 0 .959-.448.959-1s-.43-1-.959-1h-3.833V5c0-.552-.43-1-.958-1z"/>
    </g>
    <defs>
        <clipPath id="a">
            <path fill="#fff" d="M0 0h23v24H0z"/>
        </clipPath>
    </defs>
</svg>
