<svg width="23" height="23" viewBox="0 0 23 23" fill="none" xmlns="http://www.w3.org/2000/svg">
    <g clip-path="url(#a)" fill="#fff">
        <path d="M20.364 23H2.636A2.638 2.638 0 0 1 0 20.365V4.552a2.638 2.638 0 0 1 2.635-2.635h17.73A2.638 2.638 0 0 1 23 4.552v15.813A2.638 2.638 0 0 1 20.364 23zM2.636 3.354a1.2 1.2 0 0 0-1.197 1.198v15.813a1.2 1.2 0 0 0 1.197 1.198h17.73a1.2 1.2 0 0 0 1.198-1.198V4.552a1.2 1.2 0 0 0-1.198-1.198H2.634z"/>
        <path d="M22.281 9.104H.72a.719.719 0 0 1 0-1.437H22.28a.719.719 0 0 1 0 1.437z"/>
        <path d="M5.51 5.75a.719.719 0 0 1-.718-.719V.72a.719.719 0 0 1 1.437 0V5.03a.719.719 0 0 1-.719.719z"/>
        <path d="M17.49 5.75a.719.719 0 0 1-.719-.719V.72a.719.719 0 0 1 1.438 0V5.03a.719.719 0 0 1-.72.719z"/>
    </g>
    <defs>
        <clipPath id="a">
            <path fill="#fff" d="M0 0h23v23H0z"/>
        </clipPath>
    </defs>
</svg>
