<svg width="67" height="60" viewBox="0 0 67 60" fill="none" xmlns="http://www.w3.org/2000/svg">
    <path d="M54.395 3.26a.89.89 0 0 0-1.209-.046l-6.065 5.2-6.715 1.491V6.832a2.941 2.941 0 0 0-4.573-2.447L33.678 5.82a.89.89 0 0 0-.397.741v3.833c0 .414.072.825.214 1.214l-5.017 2.15-6.96 2.9a8.507 8.507 0 0 1-6.7-.079 10.29 10.29 0 0 0-9.251.468l-2.118 1.21a.891.891 0 0 0-.188 1.403l4.703 4.703a3.514 3.514 0 0 1 1.009 2.94 5.318 5.318 0 0 0 5.276 5.977 8.224 8.224 0 0 1 8.043 6.593l.319 1.598a.892.892 0 0 0 1.503.455l5.605-5.605v.417l-4.43 18.602a.892.892 0 0 0 .867 1.096h2.672a.89.89 0 0 0 .83-.566l7.08-18.096 5.488 18.031a.89.89 0 0 0 .852.632h2.672a.89.89 0 0 0 .88-1.029l-4.42-28.286 3.378-10.132 5.013-2.507a.889.889 0 0 0 .343-.303l5.344-8.015a.89.89 0 0 0-.111-1.124l-1.782-1.781zm-20.37 12.622l-.568.284-1.822-1.822 1.812-.776.578 2.314zm1.038-5.487V8.613h3.562v1.782a1.781 1.781 0 0 1-3.563 0zm8.015.741v2.001l-.624.312-1.398-1.864 2.022-.449zm-6.257-5.27a1.16 1.16 0 0 1 1.804.966h-3.252l1.448-.965zM24.031 39.49a10.01 10.01 0 0 0-9.781-7.99 3.537 3.537 0 0 1-3.51-3.975 5.283 5.283 0 0 0-1.516-4.42l-3.88-3.88 1.107-.63a8.502 8.502 0 0 1 7.644-.387 10.297 10.297 0 0 0 8.109.095l4.251-1.771-3.712 5.568a.89.89 0 0 0-.15.494v4.453a.89.89 0 0 0 .61.845l7.17 2.39-.608 1.827a.893.893 0 0 0-.046.282v1.412L24.03 39.49zm5.212-15.37l1.003-1.338.669 2.34-1.672-1.003zm2.077 3.323l-.383 1.15-1.616-.54.696-1.392 1.303.782zm12.418 27.213l-6.042-19.853a.891.891 0 0 0-1.682-.065L28.22 54.656h-.936l4.192-17.606a.89.89 0 0 0 .024-.206v-4.309l1.532-4.597h7.503l4.174 26.718h-.971zm5.855-41.66l-5.132 2.567a.89.89 0 0 0-.447.515l-3.36 10.078h-7.592l-1.596-5.588a.89.89 0 0 0-1.57-.29l-2.671 3.563a.892.892 0 0 0 .254 1.298l1.006.603-.871 1.742-3.239-1.079v-3.542l5.047-7.57.45-.193 2.78 2.78a.89.89 0 0 0 1.027.167l1.782-.891a.89.89 0 0 0 .465-1.013l-.635-2.543a3.556 3.556 0 0 0 4.323-.969l1.861 2.481a.89.89 0 0 0 1.11.263l1.782-.891a.89.89 0 0 0 .492-.796V10.74l2.865-.636a.892.892 0 0 0 .387-.193l2.251-1.93 1.545 1.545-2.314 3.47zm3.322-4.982l-1.197-1.196 2.001-1.714.682.681-1.486 2.23z" fill="#fff"/>
    <path d="M6.458 12.594l-2.119 1.21.884 1.547 2.118-1.21-.883-1.547z" fill="#fff"/>
    <path d="M14.986 13.755a10.295 10.295 0 0 0 8.109.095l.732-.305-.685-1.645-.733.306a8.506 8.506 0 0 1-6.7-.079 10.299 10.299 0 0 0-6.694-.567l.44 1.727a8.51 8.51 0 0 1 5.531.468z" fill="#fff"/>
</svg>
