<svg width="94" height="60" viewBox="0 0 94 60" fill="none" xmlns="http://www.w3.org/2000/svg">
    <path d="M56.484 24.063h-1.172v-5.344c0-2.62-2.103-4.75-4.687-4.75a4.61 4.61 0 0 0-2.465.71C47.681 12.574 45.814 11 43.594 11h-.002c-2.583 0-4.687 2.13-4.687 4.75v8.313h-17.81V15.75c0-2.62-2.104-4.75-4.689-4.75-2.22 0-4.087 1.573-4.566 3.68a4.61 4.61 0 0 0-2.465-.711c-2.584 0-4.688 2.13-4.688 4.75v5.343H3.516C1.577 24.063 0 25.662 0 27.625v4.75c0 1.964 1.577 3.563 3.516 3.563h1.171v5.343c0 2.62 2.104 4.75 4.688 4.75a4.61 4.61 0 0 0 2.465-.71C12.319 47.426 14.186 49 16.406 49h.002c2.583 0 4.687-2.13 4.687-4.75v-8.313h17.81v8.313c0 2.62 2.104 4.75 4.689 4.75 2.22 0 4.087-1.573 4.566-3.68a4.61 4.61 0 0 0 2.465.711c2.584 0 4.688-2.13 4.688-4.75v-5.343h1.171c1.938 0 3.516-1.599 3.516-3.563v-4.75c0-1.964-1.578-3.563-3.516-3.563zm-51.797 9.5H3.516a1.181 1.181 0 0 1-1.172-1.188v-4.75c0-.654.526-1.188 1.172-1.188h1.171v7.125zm7.032 7.718c0 .656-.262 1.25-.687 1.68a2.32 2.32 0 0 1-1.657.695c-1.293 0-2.344-1.065-2.344-2.375V18.72c0-1.31 1.051-2.375 2.344-2.375s2.344 1.065 2.344 2.375V41.28zm7.032 2.969c0 1.31-1.052 2.375-2.343 2.375h-.002c-1.291 0-2.343-1.065-2.343-2.375v-28.5c0-1.31 1.052-2.375 2.345-2.375 1.291 0 2.343 1.065 2.343 2.375v28.5zm20.147-15.438h-8.195A1.18 1.18 0 0 0 29.531 30a1.18 1.18 0 0 0 1.172 1.188h8.195v2.375H21.089v-7.126h17.809v2.375zm7.04 15.438c0 1.31-1.053 2.375-2.346 2.375-1.291 0-2.343-1.065-2.343-2.375V30.06a.722.722 0 0 1-.007.078v-.276a.722.722 0 0 1 .007.077V15.75c0-1.31 1.052-2.375 2.343-2.375h.002c1.291 0 2.343 1.065 2.343 2.375v28.5zm7.03-2.969c0 1.31-1.05 2.375-2.343 2.375s-2.344-1.065-2.344-2.375V18.72c0-1.31 1.051-2.375 2.344-2.375s2.344 1.065 2.344 2.375V41.28zm4.688-8.906c0 .654-.526 1.188-1.172 1.188h-1.172v-7.126h1.172c.646 0 1.172.534 1.172 1.188v4.75z" fill="#fff"/>
    <path d="M24.283 29.613A1.104 1.104 0 0 1 23.19 28.5c0-.615.49-1.113 1.093-1.113h.001c.604 0 1.094.498 1.094 1.113s-.49 1.113-1.094 1.113z" fill="#fff"/>
</svg>
