<?xml version="1.0" encoding="UTF-8"?><!DOCTYPE svg PUBLIC "-//W3C//DTD SVG 1.1//EN" "http://www.w3.org/Graphics/SVG/1.1/DTD/svg11.dtd"><svg xmlns="http://www.w3.org/2000/svg"><defs>
        <clipPath id="a">
            <path d="M0 0h23v23H0z"/>
        </clipPath>
    
        <clipPath id="a">
            <path d="M0 .933h16.437v16.133H0z"/>
        </clipPath>
    
        <clipPath id="a">
            <path d="M0 0h23v24H0z"/>
        </clipPath>
    
        <clipPath id="a">
            <path d="M0 0h31v31H0z"/>
        </clipPath>
    </defs><symbol id="icon-calendar" viewBox="0 0 23 23">
    <g clip-path="url(#a)">
        <path d="M20.364 23H2.636A2.638 2.638 0 0 1 0 20.365V4.552a2.638 2.638 0 0 1 2.635-2.635h17.73A2.638 2.638 0 0 1 23 4.552v15.813A2.638 2.638 0 0 1 20.364 23zM2.636 3.354a1.2 1.2 0 0 0-1.197 1.198v15.813a1.2 1.2 0 0 0 1.197 1.198h17.73a1.2 1.2 0 0 0 1.198-1.198V4.552a1.2 1.2 0 0 0-1.198-1.198H2.634z"/>
        <path d="M22.281 9.104H.72a.719.719 0 0 1 0-1.437H22.28a.719.719 0 0 1 0 1.437z"/>
        <path d="M5.51 5.75a.719.719 0 0 1-.718-.719V.72a.719.719 0 0 1 1.437 0V5.03a.719.719 0 0 1-.719.719z"/>
        <path d="M17.49 5.75a.719.719 0 0 1-.719-.719V.72a.719.719 0 0 1 1.438 0V5.03a.719.719 0 0 1-.72.719z"/>
    </g>
    
</symbol><symbol id="icon-close" viewBox="0 0 20 20">
    <path d="M0 17.857L17.857 0 20 2.142 2.142 20z"/>
    <path d="M17.857 20L0 2.143 2.143 0 20 17.858z"/>
</symbol><symbol id="icon-facebook" viewBox="0 0 10 19">
    <title>
        facebook
    </title>
    <path d="M9.766.157v2.946H8.014c-.64 0-1.071.134-1.295.402-.223.268-.335.67-.335 1.205v2.11h3.27l-.435 3.303H6.384v8.471H2.97v-8.47H.123V6.82H2.97V4.387c0-1.384.387-2.457 1.161-3.22C4.904.404 5.934.023 7.222.023c1.093 0 1.941.045 2.544.134z" fill-rule="evenodd"/>
</symbol><symbol id="icon-fb" viewBox="0 0 17 18">
    <g clip-path="url(#a)">
        <path d="M14.029.933H2.408C1.08.933 0 1.993 0 3.297v11.406c0 1.303 1.08 2.364 2.408 2.364h4.847v-5.704H5.33V8.527h1.926V6.605c0-1.564 1.296-2.836 2.89-2.836h2.921v2.836h-2.921v1.922h2.921l-.482 2.836h-2.44v5.704h3.885c1.328 0 2.408-1.06 2.408-2.364V3.297c0-1.303-1.08-2.364-2.408-2.364z"/>
    </g>
    
</symbol><symbol id="icon-inst" viewBox="0 0 18 18">
    <title>
        inst
    </title>
    <path d="M5 0a5 5 0 0 0-5 5v8a5 5 0 0 0 5 5h8a5 5 0 0 0 5-5V5a5 5 0 0 0-5-5H5zm10 2c.55 0 1 .45 1 1s-.45 1-1 1-1-.45-1-1 .45-1 1-1zM9 4a5 5 0 1 1 0 10A5 5 0 0 1 9 4zm0 2a3.001 3.001 0 1 0 .002 6.002A3.001 3.001 0 0 0 9 6z" fill-rule="nonzero"/>
</symbol><symbol id="icon-pin" viewBox="0 0 14 20">
    <path d="M7 0C3.14 0 0 3.119 0 6.952 0 11.77 7.007 20 7.007 20S14 11.533 14 6.952C14 3.119 10.86 0 7 0zm2.112 8.987A2.989 2.989 0 0 1 7 9.855c-.765 0-1.53-.29-2.112-.868a2.955 2.955 0 0 1 0-4.195A2.977 2.977 0 0 1 7 3.924c.798 0 1.548.308 2.112.868a2.955 2.955 0 0 1 0 4.195z"/>
</symbol><symbol id="icon-switch" viewBox="0 0 27 14">
    <path d="M1 7h25M1 7l6-6M1 7l6 6" stroke-width="2" stroke-linecap="round" stroke-linejoin="round"/>
</symbol><symbol id="icon-time" viewBox="0 0 23 24">
    <g clip-path="url(#a)">
        <path d="M20.58 6.315c-.476.24-.676.839-.445 1.335.63 1.358.948 2.82.948 4.35 0 5.514-4.299 10-9.583 10s-9.583-4.486-9.583-10S6.216 2 11.5 2c2.19 0 4.247.746 5.95 2.157a.931.931 0 0 0 1.346-.16c.33-.432.26-1.061-.154-1.405A11.22 11.22 0 0 0 11.5 0C5.16 0 0 5.384 0 12s5.16 12 11.5 12S23 18.616 23 12c0-1.834-.384-3.59-1.14-5.22a.94.94 0 0 0-1.28-.465z"/>
        <path d="M11.5 4c-.53 0-.959.448-.959 1v7c0 .552.43 1 .959 1h4.791c.53 0 .959-.448.959-1s-.43-1-.959-1h-3.833V5c0-.552-.43-1-.958-1z"/>
    </g>
    
</symbol><symbol id="icon-tools-and-utensils" viewBox="0 0 31 31">
    <g clip-path="url(#a)">
        <path d="M29.184 12.473h-.606V9.748a2.425 2.425 0 0 0-2.422-2.422c-.467 0-.903.133-1.273.363a2.425 2.425 0 0 0-2.36-1.877A2.425 2.425 0 0 0 20.1 8.235v4.239h-9.202V8.234a2.425 2.425 0 0 0-2.422-2.421 2.425 2.425 0 0 0-2.36 1.876 2.405 2.405 0 0 0-1.273-.363 2.425 2.425 0 0 0-2.422 2.422v2.725h-.606A1.819 1.819 0 0 0 0 14.289v2.422c0 1.001.815 1.816 1.816 1.816h.606v2.725a2.425 2.425 0 0 0 2.422 2.422c.467 0 .903-.133 1.273-.363a2.425 2.425 0 0 0 2.36 1.877 2.425 2.425 0 0 0 2.422-2.422v-4.239h9.202v4.239a2.425 2.425 0 0 0 2.422 2.422 2.425 2.425 0 0 0 2.36-1.877c.37.23.806.363 1.273.363a2.425 2.425 0 0 0 2.422-2.422v-2.725h.606A1.819 1.819 0 0 0 31 16.711v-2.422a1.819 1.819 0 0 0-1.816-1.816zM2.422 17.316h-.606a.606.606 0 0 1-.605-.605v-2.422c0-.334.272-.605.605-.605h.606v3.632zm3.633 3.936c0 .334-.136.637-.355.856a1.212 1.212 0 0 1-2.067-.856V9.748a1.212 1.212 0 0 1 2.422 0v11.504zm3.633 1.514c0 .668-.544 1.21-1.21 1.21h-.001c-.668 0-1.211-.543-1.211-1.21V8.234c0-.668.543-1.21 1.211-1.21.667 0 1.211.542 1.211 1.21v14.532zm10.41-7.871h-4.235a.606.606 0 0 0 0 1.21h4.234v1.211h-9.2v-3.632h9.2v1.21zm3.636 7.87c0 .668-.543 1.212-1.211 1.212s-1.211-.544-1.211-1.211V15.53a.359.359 0 0 1-.004.04v-.141a.359.359 0 0 1 .004.039V8.234c0-.668.543-1.21 1.21-1.21h.001c.668 0 1.211.542 1.211 1.21v14.532zm3.633-1.513a1.212 1.212 0 0 1-2.422 0V9.748a1.212 1.212 0 0 1 2.422 0v11.504zm2.422-4.541a.606.606 0 0 1-.605.605h-.606v-3.632h.606c.333 0 .605.271.605.605v2.422z"/>
        <path d="M13.443 16.105a.606.606 0 0 1 0-1.21.606.606 0 0 1 0 1.21z"/>
    </g>
    
</symbol><symbol id="icon-youtube" viewBox="0 0 23 22">
    <path d="M21.856 5.845a2.609 2.609 0 0 0-1.852-1.818c-1.645-.442-8.222-.442-8.222-.442s-6.577 0-8.221.425a2.661 2.661 0 0 0-1.852 1.835c-.433 1.614-.433 4.96-.433 4.96s0 3.364.433 4.961c.242.884.951 1.58 1.852 1.818 1.661.442 8.221.442 8.221.442s6.578 0 8.222-.425c.9-.238 1.61-.934 1.852-1.818.433-1.614.433-4.96.433-4.96s.017-3.364-.433-4.978zM9.688 13.898V7.714l5.47 3.092-5.47 3.092z"/>
</symbol></svg>