<svg width="31" height="31" viewBox="0 0 31 31" fill="none" xmlns="http://www.w3.org/2000/svg">
    <g clip-path="url(#a)" fill="#fff">
        <path d="M29.184 12.473h-.606V9.748a2.425 2.425 0 0 0-2.422-2.422c-.467 0-.903.133-1.273.363a2.425 2.425 0 0 0-2.36-1.877A2.425 2.425 0 0 0 20.1 8.235v4.239h-9.202V8.234a2.425 2.425 0 0 0-2.422-2.421 2.425 2.425 0 0 0-2.36 1.876 2.405 2.405 0 0 0-1.273-.363 2.425 2.425 0 0 0-2.422 2.422v2.725h-.606A1.819 1.819 0 0 0 0 14.289v2.422c0 1.001.815 1.816 1.816 1.816h.606v2.725a2.425 2.425 0 0 0 2.422 2.422c.467 0 .903-.133 1.273-.363a2.425 2.425 0 0 0 2.36 1.877 2.425 2.425 0 0 0 2.422-2.422v-4.239h9.202v4.239a2.425 2.425 0 0 0 2.422 2.422 2.425 2.425 0 0 0 2.36-1.877c.37.23.806.363 1.273.363a2.425 2.425 0 0 0 2.422-2.422v-2.725h.606A1.819 1.819 0 0 0 31 16.711v-2.422a1.819 1.819 0 0 0-1.816-1.816zM2.422 17.316h-.606a.606.606 0 0 1-.605-.605v-2.422c0-.334.272-.605.605-.605h.606v3.632zm3.633 3.936c0 .334-.136.637-.355.856a1.212 1.212 0 0 1-2.067-.856V9.748a1.212 1.212 0 0 1 2.422 0v11.504zm3.633 1.514c0 .668-.544 1.21-1.21 1.21h-.001c-.668 0-1.211-.543-1.211-1.21V8.234c0-.668.543-1.21 1.211-1.21.667 0 1.211.542 1.211 1.21v14.532zm10.41-7.871h-4.235a.606.606 0 0 0 0 1.21h4.234v1.211h-9.2v-3.632h9.2v1.21zm3.636 7.87c0 .668-.543 1.212-1.211 1.212s-1.211-.544-1.211-1.211V15.53a.359.359 0 0 1-.004.04v-.141a.359.359 0 0 1 .004.039V8.234c0-.668.543-1.21 1.21-1.21h.001c.668 0 1.211.542 1.211 1.21v14.532zm3.633-1.513a1.212 1.212 0 0 1-2.422 0V9.748a1.212 1.212 0 0 1 2.422 0v11.504zm2.422-4.541a.606.606 0 0 1-.605.605h-.606v-3.632h.606c.333 0 .605.271.605.605v2.422z"/>
        <path d="M13.443 16.105a.606.606 0 0 1 0-1.21.606.606 0 0 1 0 1.21z"/>
    </g>
    <defs>
        <clipPath id="a">
            <path fill="#fff" d="M0 0h31v31H0z"/>
        </clipPath>
    </defs>
</svg>
